<svg width="48" height="40" viewBox="0 0 48 40" fill="none" xmlns="http://www.w3.org/2000/svg">
<rect width="48" height="40" rx="10" fill="#D9D9D9"/>
<path d="M37 22C38.1046 22 39 21.1046 39 20C39 18.8954 38.1046 18 37 18V22ZM9.58579 18.5858C8.80474 19.3668 8.80474 20.6332 9.58579 21.4142L22.3137 34.1421C23.0948 34.9232 24.3611 34.9232 25.1421 34.1421C25.9232 33.3611 25.9232 32.0948 25.1421 31.3137L13.8284 20L25.1421 8.68629C25.9232 7.90524 25.9232 6.63891 25.1421 5.85786C24.3611 5.07682 23.0948 5.07682 22.3137 5.85786L9.58579 18.5858ZM37 18L11 18V22L37 22V18Z" fill="black"/>
</svg>
